<?xml version="1.0" encoding="utf-8"?>
<!-- Generator: Adobe Illustrator 19.0.0, SVG Export Plug-In . SVG Version: 6.00 Build 0)  -->
<svg version="1.1" id="Capa_1" xmlns="http://www.w3.org/2000/svg" xmlns:xlink="http://www.w3.org/1999/xlink" x="0px" y="0px"
	 viewBox="-54 239.1 485.2 363.8" style="enable-background:new -54 239.1 485.2 363.8;" xml:space="preserve">
<style type="text/css">
	.st0{fill:#FFFFFF;}
</style>
<g>
	<path class="st0" d="M431.2,542.3c0,10.6-3,20.5-7.8,29.2L270.2,400.1l151.5-132.6c5.9,9.4,9.4,20.3,9.4,32.2L431.2,542.3
		L431.2,542.3z M188.6,431.2l210.9-184.5c-8.7-4.7-18.4-7.6-28.9-7.6H6.7c-10.5,0-20.3,2.9-28.9,7.6L188.6,431.2z M247.4,420
		l-48.8,42.7c-2.9,2.5-6.4,3.7-10,3.7c-3.6,0-7.1-1.2-10-3.7L129.8,420L-25.3,593.6c9.3,5.8,20.2,9.3,32,9.3h363.9
		c11.8,0,22.7-3.5,32-9.3L247.4,420z M-44.6,267.5c-5.9,9.4-9.4,20.3-9.4,32.2v242.6c0,10.6,3,20.5,7.8,29.2L107,400L-44.6,267.5z"
		/>
</g>
</svg>
