<?xml version="1.0" encoding="utf-8"?>
<!-- Generator: Adobe Illustrator 19.0.0, SVG Export Plug-In . SVG Version: 6.00 Build 0)  -->
<svg version="1.1" id="Layer_1" xmlns="http://www.w3.org/2000/svg" xmlns:xlink="http://www.w3.org/1999/xlink" x="0px" y="0px"
	 viewBox="0 0 143.3 143.3" style="enable-background:new 0 0 143.3 143.3;" xml:space="preserve">
<style type="text/css">
	.st0{fill:#FFFFFF;}
</style>
<g id="Proxy">
	<path class="st0" d="M138.1,64.8c-2.9-28.2-23.8-52-51.5-58.3c-1.3-0.3-2.6,0.5-2.9,1.8c-0.3,1.3,0.5,2.6,1.8,2.9
		c15.1,3.4,28,12.5,36.7,24.7h-8.7c-1.3,0-2.4,1.1-2.4,2.4c0,1.3,1.1,2.4,2.4,2.4h11.8c4.3,7.4,7.1,15.7,8.1,24.5
		c-1.8,0.8-3.2,2.3-3.9,4.2h-14.8c-1.3,0-2.4,1.1-2.4,2.4c0,1.3,1.1,2.4,2.4,2.4h14.8c1,2.8,3.6,4.8,6.7,4.8c4,0,7.2-3.2,7.2-7.2
		C143.3,68.4,141.1,65.7,138.1,64.8L138.1,64.8z M136.2,74.1c-1.3,0-2.4-1.1-2.4-2.4c0-1.3,1-2.3,2.3-2.4c0,0,0,0,0.1,0c0,0,0,0,0,0
		c1.3,0,2.4,1.1,2.4,2.4C138.6,73,137.5,74.1,136.2,74.1L136.2,74.1z M136.2,74.1"/>
	<path class="st0" d="M8.1,60.8c0.2,0,0.3,0,0.5,0c1.1,0,2.1-0.8,2.3-1.9c1-4.7,2.6-9.3,4.6-13.7c0.4,0.1,0.8,0.1,1.2,0.1
		c4,0,7.2-3.2,7.2-7.2c0-4-3.2-7.2-7.2-7.2c-4,0-7.2,3.2-7.2,7.2c0,1.8,0.7,3.4,1.8,4.7C9,47.7,7.3,52.8,6.2,58
		C5.9,59.3,6.8,60.5,8.1,60.8L8.1,60.8z M16.7,35.8c1.3,0,2.4,1.1,2.4,2.4c0,1.3-1.1,2.4-2.4,2.4c-1.3,0-2.4-1.1-2.4-2.4
		C14.3,36.9,15.4,35.8,16.7,35.8L16.7,35.8z M16.7,35.8"/>
	<path class="st0" d="M57.7,132.2c-25.6-5.9-45-27.9-47.8-53.9c2.6-1.1,4.4-3.6,4.4-6.6c0-4-3.2-7.2-7.2-7.2c-4,0-7.2,3.2-7.2,7.2
		c0,3.3,2.2,6,5.2,6.9c2.9,28.1,23.8,52,51.5,58.3c0.2,0,0.4,0.1,0.5,0.1c1.1,0,2.1-0.7,2.3-1.9C59.8,133.8,59,132.5,57.7,132.2
		L57.7,132.2z M7.2,74.1C7.2,74.1,7.2,74,7.2,74.1C7.2,74,7.2,74.1,7.2,74.1c-1.4,0-2.4-1.1-2.4-2.4c0-1.3,1.1-2.4,2.4-2.4
		c1.3,0,2.4,1.1,2.4,2.4C9.6,73,8.5,74,7.2,74.1L7.2,74.1z M7.2,74.1"/>
	<path class="st0" d="M135.3,82.5c-1.3-0.3-2.6,0.6-2.8,1.9c-1.4,6.6-3.8,12.7-7,18.3h-11.9c-1.3,0-2.4,1.1-2.4,2.4
		c0,1.3,1.1,2.4,2.4,2.4h8.8c-9.7,13.7-24.9,23.2-42,25.6c5.2-4.1,12.5-11,18.5-21c0.5,0.1,1,0.2,1.5,0.2c4,0,7.2-3.2,7.2-7.2
		c0-2.2-1-4.1-2.6-5.5c3.3-8.7,5-18.1,5-28c0-10.1-1.6-19.5-4.7-28.2c1.4-1.3,2.3-3.2,2.3-5.2c0-4-3.2-7.2-7.2-7.2
		c-0.3,0-0.6,0.1-0.9,0.1C92.7,19.6,84.1,12.4,78.7,8.6c0.1-0.5,0.2-1,0.2-1.5c0-4-3.2-7.2-7.2-7.2c-3.3,0-6,2.2-6.8,5.2
		c-16.3,1.7-31.3,9.1-42.4,21.3c-0.9,1-0.8,2.5,0.1,3.4c0.5,0.4,1,0.6,1.6,0.6c0.6,0,1.3-0.3,1.8-0.8C35.8,19,48.8,12.2,63.1,10.2
		C56.9,15,48.2,23.4,41.9,35.8h-12c-1.3,0-2.4,1.1-2.4,2.4c0,1.3,1.1,2.4,2.4,2.4h9.8c-3.4,8-5.8,17.6-6.1,28.7h-12
		c-1.3,0-2.4,1.1-2.4,2.4c0,1.3,1.1,2.4,2.4,2.4h12c0.3,11.2,2.4,20.7,5.7,28.7h-9.3c-1.3,0-2.4,1.1-2.4,2.4c0,1.3,1.1,2.4,2.4,2.4
		h11.5c7,14.2,17,22.8,23.3,27.2c-0.1,0.5-0.1,1-0.1,1.4c0,4,3.2,7.2,7.2,7.2c3.3,0,6-2.2,6.9-5.2c28.7-3,52.7-24.4,58.6-52.8
		C137.4,84.1,136.6,82.8,135.3,82.5L135.3,82.5z M100.3,107.5c-1.3,0-2.4-1.1-2.4-2.4c0-1.3,1.1-2.4,2.4-2.4c1.3,0,2.4,1.1,2.4,2.4
		C102.7,106.4,101.7,107.5,100.3,107.5L100.3,107.5z M100.3,35.8c1.3,0,2.4,1.1,2.4,2.4c0,1.3-1.1,2.4-2.4,2.4
		c-1.3,0-2.4-1.1-2.4-2.4C98,36.9,99,35.8,100.3,35.8L100.3,35.8z M71.7,4.8c1.3,0,2.4,1.1,2.4,2.4S73,9.6,71.7,9.6
		c-1.3,0-2.4-1-2.4-2.3c0,0,0,0,0,0c0,0,0,0,0,0C69.3,5.8,70.4,4.8,71.7,4.8L71.7,4.8z M74.1,71.7c0,1.3-1.1,2.4-2.4,2.4
		c-1.3,0-2.4-1.1-2.4-2.4c0-1.3,1.1-2.4,2.4-2.4C73,69.3,74.1,70.4,74.1,71.7L74.1,71.7z M45.6,105.4c0-0.1,0.1-0.2,0.1-0.3
		c0-0.8-0.5-1.5-1.1-2c-3.8-8.4-6.4-18.8-6.4-31.5c0-13,3-23.8,7.3-32.5c0,0,0,0,0,0C52,25.9,61.4,17.3,67.4,12.9
		c0.6,0.4,1.2,0.8,1.9,1v21.9H52.6c-1.3,0-2.4,1.1-2.4,2.4c0,1.3,1.1,2.4,2.4,2.4h16.7v24.3c-2,0.7-3.6,2.3-4.3,4.3H45.4
		c-1.3,0-2.4,1.1-2.4,2.4c0,1.3,1.1,2.4,2.4,2.4h19.6c0.7,2,2.3,3.6,4.3,4.3v24.3H52.6c-1.3,0-2.4,1.1-2.4,2.4
		c0,1.3,1.1,2.4,2.4,2.4h16.7v21.9c-0.8,0.3-1.5,0.7-2.1,1.2C61.2,126.5,52.1,118.6,45.6,105.4L45.6,105.4z M71.7,138.6
		c-1.3,0-2.4-1.1-2.4-2.4c0-1.3,1.1-2.4,2.4-2.4c1.3,0,2.4,1,2.4,2.3c0,0,0,0,0,0c0,0,0,0,0,0C74,137.5,73,138.6,71.7,138.6
		L71.7,138.6z M76,130.5c-0.6-0.4-1.2-0.8-1.9-1v-51c2.8-1,4.8-3.6,4.8-6.7c0-3.1-2-5.7-4.8-6.7v-51c0.8-0.3,1.5-0.7,2.1-1.2
		c5,3.5,12.8,10.1,19,20.6c-0.7,0.7-1.2,1.6-1.6,2.5H80c-1.3,0-2.4,1.1-2.4,2.4c0,1.3,1.1,2.4,2.4,2.4h13.6c1,2.8,3.6,4.8,6.7,4.8
		c0.2,0,0.3,0,0.5,0c2.6,7.4,4,15.4,4.3,23.9H86c-1.3,0-2.4,1.1-2.4,2.4c0,1.3,1.1,2.4,2.4,2.4h19.1c-0.2,8.4-1.8,16.4-4.6,23.9
		c0,0-0.1,0-0.1,0c-3.1,0-5.7,2-6.7,4.8H80c-1.3,0-2.4,1.1-2.4,2.4c0,1.3,1.1,2.4,2.4,2.4h13.6c0.3,0.8,0.7,1.5,1.2,2.1
		C88.6,119.9,80.9,126.8,76,130.5L76,130.5z M76,130.5"/>
</g>
</svg>
