<?xml version="1.0" encoding="utf-8"?>
<!-- Generator: Adobe Illustrator 19.0.0, SVG Export Plug-In . SVG Version: 6.00 Build 0)  -->
<svg version="1.1" id="Layer_1" xmlns="http://www.w3.org/2000/svg" xmlns:xlink="http://www.w3.org/1999/xlink" x="0px" y="0px"
	 viewBox="0 0 140 142.5" style="enable-background:new 0 0 140 142.5;" xml:space="preserve">
<style type="text/css">
	.st0{fill:#00A14B;}
	.st1{fill:#FFFFFF;}
	.st2{fill:#FDBB65;}
</style>
<g id="Derivatives">
	<path class="st0" d="M71.8,2.3L71.8,2.3c-22,0-39.9,17.9-39.9,39.9l0,0c0,22,17.9,39.9,39.9,39.9l0,0c22,0,39.9-17.9,39.9-39.9l0,0
		C111.7,20.2,93.8,2.3,71.8,2.3z"/>
	<path class="st1" d="M71.8,84.3c-23.3,0-42.2-18.8-42.2-42.2S48.4,0,71.8,0c23.3,0,42.2,18.8,42.2,42.2S95.1,84.3,71.8,84.3z
		 M71.8,4.5c-20.9,0-37.7,16.8-37.7,37.7c0,20.9,16.8,37.7,37.7,37.7s37.7-16.8,37.7-37.7C109.4,21.3,92.6,4.5,71.8,4.5z"/>
	<path class="st2" d="M71.8,73.1c-17.1,0-31-13.9-31-31c0-17.1,13.9-31,31-31c17.1,0,31,13.9,31,31C102.7,59.2,88.8,73.1,71.8,73.1z
		"/>
	<g>
		<path class="st1" d="M71.8,40.2c-2.9,0-5.4-2.5-5.4-5.4c0-2.9,2.5-5.4,5.4-5.4c2.9,0,5.4,2.5,5.4,5.4h4.5c0-4.7-3.4-8.5-7.6-9.6
			v-3.6h-4.5v3.6c-4.5,1.1-7.6,4.9-7.6,9.6c0,5.4,4.5,9.9,9.9,9.9c2.9,0,5.4,2.5,5.4,5.4c0,2.9-2.5,5.4-5.4,5.4
			c-2.9,0-5.4-2.5-5.4-5.4h-4.5c0,4.7,3.4,8.5,7.6,9.6v3.1H74v-3.1c4.5-1.1,7.6-4.9,7.6-9.6C81.6,44.6,77.2,40.2,71.8,40.2z"/>
		<rect x="10.5" y="92" class="st1" width="4.5" height="4.5"/>
		<rect x="10.5" y="104.5" class="st1" width="4.5" height="4.5"/>
		<rect x="10.5" y="117.1" class="st1" width="4.5" height="4.5"/>
		<rect x="90.4" y="39.7" class="st1" width="4.5" height="4.9"/>
		<rect x="48.7" y="39.7" class="st1" width="4.5" height="4.9"/>
		<path class="st1" d="M139.1,102.5c-2.3-4.7-7.6-6.9-12.3-5.2l-30.5,10.3c0.2-0.7,0.2-1.6,0.2-2.5c0-5.8-4.7-10.5-10.5-10.5H63.3
			c-0.7,0-1.6-0.2-2.3-0.4l-14.6-7.6l-0.2-0.2c-1.3-0.4-2.7-0.7-4-0.7H25.8v-6.1H0v53.6h25.8v-4.7h5.6l41.7,13.9
			c1.6,0.4,3.1,0.9,4.9,0.9c2.5,0,4.9-0.7,7.2-1.8l49.6-26.3C139.3,113.1,141.3,107.4,139.1,102.5z M21.3,129v0.2H4.5V84.3h16.8V129
			z M132.6,111.7l-49.6,26c-2.7,1.3-5.8,1.6-8.8,0.7l-42.4-14.1h-6.3V90.4h16.4c0.9,0,1.6,0.2,2.5,0.4L59,98.5l0.2,0.2
			c1.1,0.4,2.5,0.7,3.8,0.7h22.7c3.4,0,6.1,2.7,6.1,6.1c0,1.8-0.9,3.4-2,4.5l-4.3,1.6H67.1c-4.7,0-8.5,3.8-8.5,8.5h4.5
			c0-2.3,1.8-4,4-4h18.6c2.3,0,4.3-0.7,6.1-2l36.1-12.3c2.7-0.9,5.6,0.2,6.7,2.9C136.2,107,135.3,110.4,132.6,111.7z"/>
	</g>
</g>
</svg>
