<?xml version="1.0" encoding="utf-8"?>
<!-- Generator: Adobe Illustrator 19.0.0, SVG Export Plug-In . SVG Version: 6.00 Build 0)  -->
<svg version="1.1" id="Layer_1" xmlns="http://www.w3.org/2000/svg" xmlns:xlink="http://www.w3.org/1999/xlink" x="0px" y="0px"
	 viewBox="0 0 156.3 152.6" style="enable-background:new 0 0 156.3 152.6;" xml:space="preserve">
<style type="text/css">
	.st0{fill:#FFFFFF;}
	.st1{fill:#343434;}
	.st2{fill:#8C8C8C;}
	.st3{fill:#3D3D3C;}
	.st4{fill:#161616;}
	.st5{fill:#3A3A39;}
</style>
<path class="st0" d="M124.8,58.2l7.4-30.8c0.5,0.1,0.9,0.1,1.4,0.1c7.6,0,13.8-6.2,13.8-13.8c0-7.6-6.2-13.8-13.8-13.8
	c-7.6,0-13.8,6.2-13.8,13.8c0,5.6,3.4,10.5,8.3,12.6l-7.3,30.5c-4.2-1.2-8.7-1.9-13.3-1.9c-13.1,0-24.9,5.2-33.7,13.6L48.6,40.3
	c4.6-4.1,7.5-10,7.5-16.6c0-12.3-10-22.3-22.3-22.3c-12.3,0-22.3,10-22.3,22.3C11.7,36,21.6,46,33.9,46c4.1,0,8-1.2,11.3-3.2
	l25.7,28.9c-7.4,8.4-12,19.4-12.2,31.4L36,104.8c0-0.2,0.1-0.4,0.1-0.6c0-9.9-8.1-18-18-18c-9.9,0-18,8.1-18,18c0,9.9,8.1,18,18,18
	c8.2,0,15.1-5.6,17.3-13.1l23.6-1.8c1.8,25.3,22.9,45.3,48.6,45.3c26.9,0,48.8-21.9,48.8-48.8C156.3,83,143.2,65.2,124.8,58.2
	L124.8,58.2z M124.1,13.8c0-5.3,4.3-9.5,9.5-9.5c5.3,0,9.5,4.3,9.5,9.5c0,5.3-4.3,9.5-9.5,9.5C128.3,23.3,124.1,19.1,124.1,13.8
	L124.1,13.8z M15.9,23.7c0-9.9,8.1-18,18-18s18,8.1,18,18c0,9.9-8.1,18-18,18S15.9,33.6,15.9,23.7L15.9,23.7z M18,118
	c-7.6,0-13.8-6.2-13.8-13.8c0-7.6,6.2-13.8,13.8-13.8c7.6,0,13.8,6.2,13.8,13.8C31.8,111.9,25.6,118,18,118L18,118z M107.5,147.4
	c-24,0-43.6-19.5-43.6-43.6s19.5-43.5,43.6-43.5c24,0,43.5,19.5,43.5,43.5S131.5,147.4,107.5,147.4L107.5,147.4z M107.5,64.8
	c-21.5,0-39,17.4-39,39c0,21.5,17.5,39,39,39c21.5,0,39-17.4,39-39C146.5,82.3,129,64.8,107.5,64.8L107.5,64.8z M133.6,20.3
	c-3.6,0-6.5-2.9-6.5-6.5c0-3.6,2.9-6.5,6.5-6.5c3.6,0,6.5,2.9,6.5,6.5C140.1,17.4,137.2,20.3,133.6,20.3L133.6,20.3z M46.8,23.7
	c0,7.1-5.8,12.9-12.9,12.9c-7.1,0-12.9-5.8-12.9-12.9c0-7.1,5.8-12.9,12.9-12.9C41,10.8,46.8,16.6,46.8,23.7L46.8,23.7z M26.7,104.3
	c0,4.8-3.9,8.7-8.7,8.7c-4.8,0-8.7-3.9-8.7-8.7c0-4.8,3.9-8.7,8.7-8.7C22.8,95.6,26.7,99.5,26.7,104.3L26.7,104.3z M26.7,104.3"/>
<g id="XMLID_60_">
	<polygon id="XMLID_58_" class="st1" points="106.8,73.7 106.5,75 106.5,114.9 106.8,115.3 122.4,104.4 	"/>
	<polygon id="XMLID_57_" class="st2" points="106.8,73.7 91.2,104.4 106.8,115.3 106.8,96 	"/>
	<polygon id="XMLID_56_" class="st3" points="106.8,118.8 106.6,119.1 106.6,133.3 106.8,133.9 122.4,107.9 	"/>
	<polygon id="XMLID_55_" class="st2" points="106.8,133.9 106.8,118.8 91.2,107.9 	"/>
	<polygon id="XMLID_54_" class="st4" points="106.8,115.3 122.4,104.4 106.8,96 	"/>
	<polygon id="XMLID_53_" class="st5" points="91.2,104.4 106.8,115.3 106.8,96 	"/>
</g>
</svg>
