<?xml version="1.0" encoding="utf-8"?>
<!-- Generator: Adobe Illustrator 19.0.0, SVG Export Plug-In . SVG Version: 6.00 Build 0)  -->
<svg version="1.1" id="Layer_1" xmlns="http://www.w3.org/2000/svg" xmlns:xlink="http://www.w3.org/1999/xlink" x="0px" y="0px"
	 viewBox="0 0 89 76.9" style="enable-background:new 0 0 89 76.9;" xml:space="preserve">
<style type="text/css">
	.st0{fill:#FFFFFF;}
</style>
<g id="Exchange">
	<path class="st0" d="M72.5,76c0.6,0.6,1.3,0.9,2.1,0.9c0.7,0,1.5-0.3,2-0.8l11.6-11.3c0.6-0.5,0.9-1.3,0.9-2.1
		c0-0.8-0.3-1.5-0.9-2.1L76.5,49.3c-1.1-1.1-2.9-1.1-4.1,0c-1.1,1.1-1.1,2.9,0,4.1l6.5,6.4h-7.3c-4.4,0-8.6-2-11.4-5.3L35.1,20.1
		c-3.9-5.5-10.2-8.7-16.8-8.7H10c-1.6,0-2.9,1.3-2.9,2.9c0,1.6,1.3,2.9,2.9,2.9h8.3c4.8,0,9.4,2.4,12.2,6.3l25.3,34.5
		c0,0,0.1,0.1,0.1,0.1c3.9,4.8,9.7,7.5,15.9,7.5h7.3L72.5,72C71.4,73.1,71.4,74.9,72.5,76L72.5,76z M72.5,76"/>
	<path class="st0" d="M88.1,12.2L76.5,0.8c-1.1-1.1-2.9-1.1-4.1,0c-1.1,1.1-1.1,2.9,0,4.1l6.6,6.5h-7.3c-6.2,0-12,2.7-15.9,7.5
		c0,0-0.1,0.1-0.1,0.1l-4.7,6.5c-0.9,1.3-0.7,3.1,0.6,4c0.5,0.4,1.1,0.6,1.7,0.6c0.9,0,1.8-0.4,2.3-1.2l4.7-6.4
		c2.8-3.4,7-5.3,11.4-5.3h7.3l-6.6,6.5c-1.1,1.1-1.2,2.9,0,4.1c0.6,0.6,1.3,0.9,2.1,0.9c0.7,0,1.5-0.3,2-0.8l11.6-11.4
		c0.6-0.5,0.9-1.3,0.9-2.1C89,13.5,88.7,12.8,88.1,12.2L88.1,12.2z M88.1,12.2"/>
	<path class="st0" d="M35.1,56.8l4.2-5.6c0.9-1.3,0.7-3.1-0.6-4c-1.3-0.9-3.1-0.7-4,0.6l-4.2,5.7c0,0,0,0-0.1,0.1
		c-2.8,3.9-7.3,6.2-12.1,6.2H10c-1.6,0-2.9,1.3-2.9,2.9c0,1.6,1.3,2.9,2.9,2.9h8.3C25,65.6,31.3,62.3,35.1,56.8L35.1,56.8z
		 M35.1,56.8"/>
</g>
</svg>
