<?xml version="1.0" encoding="utf-8"?>
<!-- Generator: Adobe Illustrator 19.0.0, SVG Export Plug-In . SVG Version: 6.00 Build 0)  -->
<svg version="1.1" id="Capa_1" xmlns="http://www.w3.org/2000/svg" xmlns:xlink="http://www.w3.org/1999/xlink" x="0px" y="0px"
	 viewBox="-281 405.5 31.4 31.4" style="enable-background:new -281 405.5 31.4 31.4;" xml:space="preserve">
<style type="text/css">
	.st0{fill:#FFFFFF;}
</style>
<g>
	<path class="st0" d="M-249.8,422c-0.6-1.4-2.2-2-3.6-1.4l-1.3,0.6l-3.4-7.6l1.3-0.6c1.4-0.6,2-2.2,1.4-3.6s-2.2-2-3.6-1.4l-1.3,0.6
		l-0.6-1.3c-0.6-1.4-2.2-2-3.6-1.4s-2,2.2-1.4,3.6l0.6,1.3l-7.6,3.4l-0.6-1.3c-0.6-1.4-2.2-2-3.6-1.4s-2,2.2-1.4,3.6l0.6,1.3
		l-1.3,0.6c-1.4,0.6-2,2.2-1.4,3.6s2.2,2,3.6,1.4l1.3-0.6l3.4,7.6l-1.3,0.6c-1.4,0.6-2,2.2-1.4,3.6s2.2,2,3.6,1.4l1.3-0.6l0.6,1.3
		c0.6,1.4,2.2,2,3.6,1.4s2-2.2,1.4-3.6l-0.6-1.3l7.6-3.4l0.6,1.3c0.6,1.4,2.2,2,3.6,1.4s2-2.2,1.4-3.6l-0.6-1.3l1.3-0.6
		C-249.8,425-249.2,423.4-249.8,422z M-267.4,426.9l-3.4-7.6l7.6-3.4l3.4,7.6L-267.4,426.9z"/>
</g>
</svg>
