<?xml version="1.0" encoding="UTF-8"?>
<svg width="208px" height="192px" viewBox="0 0 208 192" version="1.1" xmlns="http://www.w3.org/2000/svg" xmlns:xlink="http://www.w3.org/1999/xlink">
    <!-- Generator: Sketch 45.2 (43514) - http://www.bohemiancoding.com/sketch -->
    <title>Combined Shape</title>
    <desc>Created with Sketch.</desc>
    <defs></defs>
    <g id="Page-1" stroke="none" stroke-width="1" fill="none" fill-rule="evenodd">
        <g id="kakaotalk" fill-rule="nonzero" fill="#3196AE">
            <path d="M104,1.42108547e-14 C161.438,1.42108547e-14 208,36.713 208,82 C208,127.288 161.438,164 104,164 C97.696,164 91.523,163.559 85.528,162.71 C79.527,166.939 44.856,191.293 41.584,191.75 C41.584,191.75 40.242,192.272 39.101,191.6 C37.96,190.928 38.167,189.166 38.167,189.166 C38.511,186.821 47.155,156.971 48.748,151.477 C19.466,136.97 0,111.279 0,82 C0,36.713 46.562,1.42108547e-14 104,1.42108547e-14 Z M46.5,110.625 C49.809,110.625 52.5,108.055 52.5,104.895 L52.5,69.25 L61.862,69.25 C65.108,69.25 67.75,66.614 67.75,63.375 C67.75,60.136 65.109,57.5 61.862,57.5 L31.138,57.5 C27.892,57.5 25.25,60.136 25.25,63.375 C25.25,66.614 27.891,69.25 31.138,69.25 L40.5,69.25 L40.5,104.895 C40.5,108.055 43.191,110.625 46.5,110.625 Z M99.112,110.547 L99.112,110.547 C99.112,110.547 99.111,110.547 99.112,110.547 C100.427926,110.548004 101.728674,110.26596 102.926,109.72 C104.58,108.959 106.17,106.86 104.344,101.188 L89.998,63.429 C88.985,60.55 85.914,57.589 81.995,57.501 C78.087,57.59 75.016,60.55 74.005,63.423 L59.653,101.199 C57.831,106.858 59.421,108.956 61.075,109.719 C62.2720408,110.265931 63.5729307,110.548348 64.889,110.547 C67.391,110.547 69.304,109.532 69.879,107.901 L72.852,100.118 L91.148,100.119 L94.119,107.897 C94.696,109.531 96.61,110.547 99.112,110.547 Z M87.993,89.491 L87.993,89.491 L76.007,89.491 L82,72.466 L87.993,89.491 Z M114,109.75 L133.25,109.75 C136.421,109.75 139,107.282 139,104.25 C139,101.218 136.421,98.75 133.25,98.75 L120.5,98.75 L120.5,63.5 C120.5,60.191 117.752,57.5 114.375,57.5 C110.998,57.5 108.25,60.191 108.25,63.5 L108.25,104.25 C108.25,107.282 110.829,109.75 114,109.75 Z M147.334,110.547 L147.334,110.547 C150.647376,110.542592 153.332144,107.857376 153.336,104.544 L153.336,91.453 L155.418,89.371 L169.489,108.015 C170.618898,109.524079 172.396818,110.408773 174.282,110.4 C175.585276,110.403185 176.853427,109.977657 177.891,109.189 C179.164603,108.234093 180.002962,106.809099 180.219,105.232 C180.445117,103.655883 180.030191,102.054887 179.067,100.787 L164.298,81.221 L177.971,67.55 C178.911,66.609 179.382,65.312 179.295,63.897 C179.209,62.494 178.582,61.143 177.531,60.093 C176.404,58.967 174.9,58.321 173.402,58.321 C172.118,58.321 170.935,58.795 170.074,59.656 L153.334,76.396 L153.334,63.5 C153.334,60.191 150.643,57.5 147.334,57.5 C144.025,57.5 141.334,60.191 141.334,63.5 L141.334,104.547 C141.334,107.856 144.025,110.547 147.334,110.547 Z" id="Combined-Shape"></path>
        </g>
    </g>
</svg>